<svg width="176" height="45" viewBox="0 0 176 45" fill="none" xmlns="http://www.w3.org/2000/svg">
<path fill-rule="evenodd" clip-rule="evenodd" d="M80.6914 33.8598C81.31 33.8598 81.8193 34.3221 81.8844 34.9153L81.8915 35.0443L81.8912 40.5227C81.8912 41.1333 81.4232 41.636 80.8219 41.7003L80.6911 41.7072H77.3289C76.7098 41.7072 76.2005 41.2453 76.1354 40.6518L76.1283 40.5227L76.1272 38.9765L72.2606 38.9767C71.642 38.9767 71.1327 38.5148 71.0676 37.9213L71.0605 37.7922V35.0443C71.0605 34.4341 71.5285 33.9311 72.1298 33.8667L72.2606 33.8598H80.6914ZM127.858 8.76034C132.454 8.76034 136.017 12.1887 136.154 16.6835L136.159 16.9545V25.1486H146.119C147.562 25.1486 148.27 24.5117 148.328 23.1532L148.332 22.9635V15.3156C148.332 14.7252 148.731 14.2893 149.304 14.23L149.439 14.2231H152.759C153.357 14.2231 153.799 14.6169 153.859 15.1822L153.866 15.3156V22.9635C153.866 27.4943 150.932 30.4848 146.41 30.6074L146.119 30.6114H138.925C138.316 30.6114 137.86 30.4961 137.479 30.0786L137.366 29.9441L136.159 28.4263V29.5188C136.159 30.108 135.759 30.545 135.187 30.6044L135.052 30.6114H117.345C117.345 35.1513 113.334 39.1964 108.756 39.3474L108.491 39.3518H99.6242C94.7356 39.3518 90.9139 35.6708 90.7868 30.8885L90.7836 30.6114V20.7784C90.7836 20.1882 91.1826 19.752 91.7553 19.6927L91.8904 19.6858H95.2105C95.8086 19.6858 96.2502 20.0798 96.3102 20.645L96.3172 20.7784L96.3058 30.5925C96.3058 32.3497 97.6882 33.7833 99.4314 33.8834L99.6265 33.889H108.491C109.946 33.889 111.682 32.226 111.804 30.772L111.811 30.6114H107.384C106.786 30.6114 106.344 30.2181 106.285 29.6523L106.278 29.5188V26.2412C106.278 25.6503 106.676 25.2147 107.249 25.1555L107.384 25.1486H130.625V16.9545C130.625 15.5249 129.465 14.3229 128.038 14.229L127.858 14.2231H116.791C116.124 14.2231 115.844 13.2575 116.173 12.6816L118.451 9.30661C118.769 8.89172 119.54 8.79156 120.181 8.76769L120.665 8.76034H127.858ZM150.546 33.889C151.145 33.889 151.586 34.2824 151.646 34.8481L151.653 34.9816V38.2592C151.653 38.8502 151.254 39.2857 150.681 39.3449L150.546 39.3518H141.692C141.093 39.3518 140.652 38.9585 140.592 38.3927L140.585 38.2592V34.9816C140.585 34.3907 140.984 33.9551 141.557 33.8959L141.692 33.889H150.546ZM125.645 33.889C126.243 33.889 126.685 34.2824 126.745 34.8481L126.752 34.9816V38.2592C126.752 38.8502 126.353 39.2857 125.78 39.3449L125.645 39.3518H121.771C121.173 39.3518 120.732 38.9585 120.672 38.3927L120.665 38.2592V34.9816C120.665 34.3907 121.063 33.9551 121.636 33.8959L121.771 33.889H125.645ZM24.3522 14.2231C24.9504 14.2231 25.3921 14.617 25.4522 15.1821L25.4592 15.3154V25.1483L28.7799 25.1486C30.5484 25.1486 31.994 23.7778 32.095 22.0494L32.1007 21.8559V15.3156C32.1007 14.7255 32.5014 14.2893 33.0736 14.23L33.2086 14.2231H36.4708C37.0711 14.2231 37.5652 14.6718 37.6284 15.2484L37.6353 15.3738L37.6349 22.4507C37.6357 23.4024 37.4689 24.3205 37.1629 25.1743L37.658 25.171C39.4179 25.159 40.8504 23.7912 40.9504 22.0709L40.956 21.8784V15.3156C40.956 14.7255 41.3568 14.2893 41.9289 14.23L42.0639 14.2231H45.3262C45.9265 14.2231 46.4206 14.6718 46.4838 15.2484L46.4906 15.3738L46.4902 22.4507C46.4921 24.6953 45.5618 26.7527 44.072 28.221C42.6609 29.6198 40.7111 30.519 38.5719 30.6046L38.2326 30.6114H36.7377C36.4182 30.6114 36.1147 30.4815 35.8965 30.2562L34.6097 28.7649C33.2719 29.8484 31.5688 30.5287 29.7246 30.6043L29.3772 30.6114L25.4592 30.5746C25.4592 34.731 22.1331 38.1155 17.9771 38.2548L17.7107 38.2592H11.0692C6.87904 38.2592 3.4657 34.9613 3.32529 30.8404L3.3208 30.5763V17.5005C3.3208 16.9104 3.71979 16.4744 4.29256 16.4151L4.42772 16.4082H7.74847C8.34685 16.4082 8.78839 16.8021 8.84842 17.3672L8.85539 17.5005V29.5038C8.85539 31.2573 10.2378 32.6907 11.981 32.7909L12.1761 32.7965H16.6038C18.3723 32.7965 19.8179 31.4257 19.9189 29.6972L19.9246 29.5038V15.3154C19.9246 14.7253 20.3237 14.2893 20.8964 14.23L21.0315 14.2231H24.3522ZM168.253 8.76034C172.843 8.76034 175.872 11.6564 175.996 16.1211L176 16.4082V22.9635C176 27.4943 173.066 30.4848 168.544 30.6074L168.253 30.6114H158.293C157.695 30.6114 157.253 30.2176 157.193 29.6522L157.186 29.5188V26.2412C157.186 25.6505 157.585 25.2147 158.158 25.1555L158.293 25.1486H168.253C169.696 25.1486 170.404 24.5117 170.463 23.1532L170.467 22.9635V16.4082C170.467 14.9838 169.822 14.2851 168.445 14.227L168.253 14.2231H158.293C157.695 14.2231 157.253 13.8291 157.193 13.2639L157.186 13.1305V9.85289C157.186 9.26248 157.585 8.8265 158.158 8.76723L158.293 8.76034H168.253ZM68.6538 4.39014C69.2519 4.39014 69.6935 4.78413 69.7535 5.34932L69.7605 5.48269V22.9635C69.7605 23.7488 69.6899 24.4783 69.551 25.1499L76.9309 25.1486C77.6993 25.1468 78.3862 24.7991 78.893 24.3105C79.3445 23.8661 79.6339 23.2941 79.6887 22.6387L79.6982 22.4172V15.3387C79.6982 14.7359 80.0848 14.2865 80.6755 14.2293L80.8051 14.2231H84.1258C84.7415 14.2231 85.1682 14.6082 85.226 15.1804L85.2327 15.3156V22.3182C85.2346 24.5993 84.2756 26.6901 82.7397 28.1822C81.285 29.6037 79.4654 30.5175 77.2791 30.6045L76.9309 30.6114H69.8452C69.5158 30.6114 69.203 30.4794 68.978 30.2505L68.8872 30.1465L67.7297 28.6556C66.4851 29.8696 64.6892 30.5387 62.3997 30.6058L62.0136 30.6114H49.8398C49.2418 30.6114 48.8001 30.2177 48.7401 29.6522L48.7331 29.5188V26.2411C48.7331 25.6509 49.132 25.2148 49.7047 25.1555L49.8398 25.1486H62.0136C63.4567 25.1486 64.1642 24.5121 64.223 23.1533L64.227 22.9635V5.48269C64.227 4.89248 64.6261 4.45633 65.1986 4.39703L65.3337 4.39014H68.6538ZM51.6752 4.39014C52.2634 4.39014 52.9065 4.64203 53.0661 5.20115L57.6051 20.3774C57.7775 20.9815 57.3857 21.4462 56.75 21.4462H53.1417C52.5412 21.4462 52.0142 21.0522 51.8516 20.482L47.6264 5.48269C47.4527 4.87402 48.0926 4.39014 48.7331 4.39014H51.6752Z" fill="white"/>
<mask id="mask0_845_142" style="mask-type:alpha" maskUnits="userSpaceOnUse" x="3" y="4" width="173" height="38">
<path fill-rule="evenodd" clip-rule="evenodd" d="M80.6914 33.8598C81.31 33.8598 81.8193 34.3221 81.8844 34.9153L81.8915 35.0443L81.8912 40.5227C81.8912 41.1333 81.4232 41.636 80.8219 41.7003L80.6911 41.7072H77.3289C76.7098 41.7072 76.2005 41.2453 76.1354 40.6518L76.1283 40.5227L76.1272 38.9765L72.2606 38.9767C71.642 38.9767 71.1327 38.5148 71.0676 37.9213L71.0605 37.7922V35.0443C71.0605 34.4341 71.5285 33.9311 72.1298 33.8667L72.2606 33.8598H80.6914ZM127.858 8.76034C132.454 8.76034 136.017 12.1887 136.154 16.6835L136.159 16.9545V25.1486H146.119C147.562 25.1486 148.27 24.5117 148.328 23.1532L148.332 22.9635V15.3156C148.332 14.7252 148.731 14.2893 149.304 14.23L149.439 14.2231H152.759C153.357 14.2231 153.799 14.6169 153.859 15.1822L153.866 15.3156V22.9635C153.866 27.4943 150.932 30.4848 146.41 30.6074L146.119 30.6114H138.925C138.316 30.6114 137.86 30.4961 137.479 30.0786L137.366 29.9441L136.159 28.4263V29.5188C136.159 30.108 135.759 30.545 135.187 30.6044L135.052 30.6114H117.345C117.345 35.1513 113.334 39.1964 108.756 39.3474L108.491 39.3518H99.6242C94.7356 39.3518 90.9139 35.6708 90.7868 30.8885L90.7836 30.6114V20.7784C90.7836 20.1882 91.1826 19.752 91.7553 19.6927L91.8904 19.6858H95.2105C95.8086 19.6858 96.2502 20.0798 96.3102 20.645L96.3172 20.7784L96.3058 30.5925C96.3058 32.3497 97.6882 33.7833 99.4314 33.8834L99.6265 33.889H108.491C109.946 33.889 111.682 32.226 111.804 30.772L111.811 30.6114H107.384C106.786 30.6114 106.344 30.2181 106.285 29.6523L106.278 29.5188V26.2412C106.278 25.6503 106.676 25.2147 107.249 25.1555L107.384 25.1486H130.625V16.9545C130.625 15.5249 129.465 14.3229 128.038 14.229L127.858 14.2231H116.791C116.124 14.2231 115.844 13.2575 116.173 12.6816L118.451 9.30661C118.769 8.89172 119.54 8.79156 120.181 8.76769L120.665 8.76034H127.858ZM150.546 33.889C151.145 33.889 151.586 34.2824 151.646 34.8481L151.653 34.9816V38.2592C151.653 38.8502 151.254 39.2857 150.681 39.3449L150.546 39.3518H141.692C141.093 39.3518 140.652 38.9585 140.592 38.3927L140.585 38.2592V34.9816C140.585 34.3907 140.984 33.9551 141.557 33.8959L141.692 33.889H150.546ZM125.645 33.889C126.243 33.889 126.685 34.2824 126.745 34.8481L126.752 34.9816V38.2592C126.752 38.8502 126.353 39.2857 125.78 39.3449L125.645 39.3518H121.771C121.173 39.3518 120.732 38.9585 120.672 38.3927L120.665 38.2592V34.9816C120.665 34.3907 121.063 33.9551 121.636 33.8959L121.771 33.889H125.645ZM24.3522 14.2231C24.9504 14.2231 25.3921 14.617 25.4522 15.1821L25.4592 15.3154V25.1483L28.7799 25.1486C30.5484 25.1486 31.994 23.7778 32.095 22.0494L32.1007 21.8559V15.3156C32.1007 14.7255 32.5014 14.2893 33.0736 14.23L33.2086 14.2231H36.4708C37.0711 14.2231 37.5652 14.6718 37.6284 15.2484L37.6353 15.3738L37.6349 22.4507C37.6357 23.4024 37.4689 24.3205 37.1629 25.1743L37.658 25.171C39.4179 25.159 40.8504 23.7912 40.9504 22.0709L40.956 21.8784V15.3156C40.956 14.7255 41.3568 14.2893 41.9289 14.23L42.0639 14.2231H45.3262C45.9265 14.2231 46.4206 14.6718 46.4838 15.2484L46.4906 15.3738L46.4902 22.4507C46.4921 24.6953 45.5618 26.7527 44.072 28.221C42.6609 29.6198 40.7111 30.519 38.5719 30.6046L38.2326 30.6114H36.7377C36.4182 30.6114 36.1147 30.4815 35.8965 30.2562L34.6097 28.7649C33.2719 29.8484 31.5688 30.5287 29.7246 30.6043L29.3772 30.6114L25.4592 30.5746C25.4592 34.731 22.1331 38.1155 17.9771 38.2548L17.7107 38.2592H11.0692C6.87904 38.2592 3.4657 34.9613 3.32529 30.8404L3.3208 30.5763V17.5005C3.3208 16.9104 3.71979 16.4744 4.29256 16.4151L4.42772 16.4082H7.74847C8.34685 16.4082 8.78839 16.8021 8.84842 17.3672L8.85539 17.5005V29.5038C8.85539 31.2573 10.2378 32.6907 11.981 32.7909L12.1761 32.7965H16.6038C18.3723 32.7965 19.8179 31.4257 19.9189 29.6972L19.9246 29.5038V15.3154C19.9246 14.7253 20.3237 14.2893 20.8964 14.23L21.0315 14.2231H24.3522ZM168.253 8.76034C172.843 8.76034 175.872 11.6564 175.996 16.1211L176 16.4082V22.9635C176 27.4943 173.066 30.4848 168.544 30.6074L168.253 30.6114H158.293C157.695 30.6114 157.253 30.2176 157.193 29.6522L157.186 29.5188V26.2412C157.186 25.6505 157.585 25.2147 158.158 25.1555L158.293 25.1486H168.253C169.696 25.1486 170.404 24.5117 170.463 23.1532L170.467 22.9635V16.4082C170.467 14.9838 169.822 14.2851 168.445 14.227L168.253 14.2231H158.293C157.695 14.2231 157.253 13.8291 157.193 13.2639L157.186 13.1305V9.85289C157.186 9.26248 157.585 8.8265 158.158 8.76723L158.293 8.76034H168.253ZM68.6538 4.39014C69.2519 4.39014 69.6935 4.78413 69.7535 5.34932L69.7605 5.48269V22.9635C69.7605 23.7488 69.6899 24.4783 69.551 25.1499L76.9309 25.1486C77.6993 25.1468 78.3862 24.7991 78.893 24.3105C79.3445 23.8661 79.6339 23.2941 79.6887 22.6387L79.6982 22.4172V15.3387C79.6982 14.7359 80.0848 14.2865 80.6755 14.2293L80.8051 14.2231H84.1258C84.7415 14.2231 85.1682 14.6082 85.226 15.1804L85.2327 15.3156V22.3182C85.2346 24.5993 84.2756 26.6901 82.7397 28.1822C81.285 29.6037 79.4654 30.5175 77.2791 30.6045L76.9309 30.6114H69.8452C69.5158 30.6114 69.203 30.4794 68.978 30.2505L68.8872 30.1465L67.7297 28.6556C66.4851 29.8696 64.6892 30.5387 62.3997 30.6058L62.0136 30.6114H49.8398C49.2418 30.6114 48.8001 30.2177 48.7401 29.6522L48.7331 29.5188V26.2411C48.7331 25.6509 49.132 25.2148 49.7047 25.1555L49.8398 25.1486H62.0136C63.4567 25.1486 64.1642 24.5121 64.223 23.1533L64.227 22.9635V5.48269C64.227 4.89248 64.6261 4.45633 65.1986 4.39703L65.3337 4.39014H68.6538ZM51.6752 4.39014C52.2634 4.39014 52.9065 4.64203 53.0661 5.20115L57.6051 20.3774C57.7775 20.9815 57.3857 21.4462 56.75 21.4462H53.1417C52.5412 21.4462 52.0142 21.0522 51.8516 20.482L47.6264 5.48269C47.4527 4.87402 48.0926 4.39014 48.7331 4.39014H51.6752Z" fill="white"/>
</mask>
<g mask="url(#mask0_845_142)">
<rect width="176" height="45" fill="white"/>
</g>
</svg>
